<?xml version="1.0" encoding="iso-8859-1"?>
<!-- Generator: Adobe Illustrator 16.0.0, SVG Export Plug-In . SVG Version: 6.00 Build 0)  -->
<!DOCTYPE svg PUBLIC "-//W3C//DTD SVG 1.1//EN" "http://www.w3.org/Graphics/SVG/1.1/DTD/svg11.dtd">
<svg version="1.1" id="Capa_1" xmlns="http://www.w3.org/2000/svg" xmlns:xlink="http://www.w3.org/1999/xlink" x="0px" y="0px"
	 width="428.896px" height="428.896px" viewBox="0 0 428.896 428.896" style="enable-background:new 0 0 428.896 428.896;"
	 xml:space="preserve">
<g>
	<path style="fill:#030303;" d="M379.936,163.513c-0.039-0.521-0.131-1.024-0.303-1.516c-0.068-0.188-0.114-0.363-0.194-0.543
		c-0.286-0.624-0.646-1.212-1.149-1.716L220.264,1.71c-0.504-0.503-1.09-0.86-1.71-1.141c-0.183-0.089-0.369-0.135-0.563-0.2
		c-0.486-0.163-0.972-0.263-1.48-0.292C216.375,0.066,216.258,0,216.129,0H54.747c-3.233,0-5.855,2.625-5.855,5.855v417.186
		c0,3.236,2.622,5.855,5.855,5.855h319.402c3.242,0,5.855-2.619,5.855-5.855V163.878
		C380.005,163.747,379.941,163.638,379.936,163.513z M221.979,19.984l69.025,69.017l69.017,69.014H221.979V19.984z M60.602,417.181
		V11.705h149.667v152.173c0,3.231,2.622,5.855,5.855,5.855h152.17v247.447H60.602z"/>
</g>
<g>
</g>
<g>
</g>
<g>
</g>
<g>
</g>
<g>
</g>
<g>
</g>
<g>
</g>
<g>
</g>
<g>
</g>
<g>
</g>
<g>
</g>
<g>
</g>
<g>
</g>
<g>
</g>
<g>
</g>
</svg>
